<svg width="1245" height="347" viewBox="0 0 1245 347" fill="none" xmlns="http://www.w3.org/2000/svg">
<path d="M417.091 225V131.909H454.364C461.212 131.909 466.924 132.924 471.5 134.955C476.076 136.985 479.515 139.803 481.818 143.409C484.121 146.985 485.273 151.106 485.273 155.773C485.273 159.409 484.545 162.606 483.091 165.364C481.636 168.091 479.636 170.333 477.091 172.091C474.576 173.818 471.697 175.045 468.455 175.773V176.682C472 176.833 475.318 177.833 478.409 179.682C481.53 181.53 484.061 184.121 486 187.455C487.939 190.758 488.909 194.697 488.909 199.273C488.909 204.212 487.682 208.621 485.227 212.5C482.803 216.348 479.212 219.394 474.455 221.636C469.697 223.879 463.833 225 456.864 225H417.091ZM436.773 208.909H452.818C458.303 208.909 462.303 207.864 464.818 205.773C467.333 203.652 468.591 200.833 468.591 197.318C468.591 194.742 467.97 192.47 466.727 190.5C465.485 188.53 463.712 186.985 461.409 185.864C459.136 184.742 456.424 184.182 453.273 184.182H436.773V208.909ZM436.773 170.864H451.364C454.061 170.864 456.455 170.394 458.545 169.455C460.667 168.485 462.333 167.121 463.545 165.364C464.788 163.606 465.409 161.5 465.409 159.045C465.409 155.682 464.212 152.97 461.818 150.909C459.455 148.848 456.091 147.818 451.727 147.818H436.773V170.864ZM532.898 226.364C525.837 226.364 519.731 224.864 514.58 221.864C509.458 218.833 505.504 214.621 502.716 209.227C499.928 203.803 498.534 197.515 498.534 190.364C498.534 183.152 499.928 176.848 502.716 171.455C505.504 166.03 509.458 161.818 514.58 158.818C519.731 155.788 525.837 154.273 532.898 154.273C539.958 154.273 546.049 155.788 551.17 158.818C556.322 161.818 560.292 166.03 563.08 171.455C565.867 176.848 567.261 183.152 567.261 190.364C567.261 197.515 565.867 203.803 563.08 209.227C560.292 214.621 556.322 218.833 551.17 221.864C546.049 224.864 539.958 226.364 532.898 226.364ZM532.989 211.364C536.201 211.364 538.883 210.455 541.034 208.636C543.186 206.788 544.807 204.273 545.898 201.091C547.019 197.909 547.58 194.288 547.58 190.227C547.58 186.167 547.019 182.545 545.898 179.364C544.807 176.182 543.186 173.667 541.034 171.818C538.883 169.97 536.201 169.045 532.989 169.045C529.746 169.045 527.019 169.97 524.807 171.818C522.625 173.667 520.973 176.182 519.852 179.364C518.761 182.545 518.216 186.167 518.216 190.227C518.216 194.288 518.761 197.909 519.852 201.091C520.973 204.273 522.625 206.788 524.807 208.636C527.019 210.455 529.746 211.364 532.989 211.364ZM616.989 155.182V169.727H574.943V155.182H616.989ZM584.489 138.455H603.852V203.545C603.852 205.333 604.125 206.727 604.67 207.727C605.216 208.697 605.973 209.379 606.943 209.773C607.943 210.167 609.095 210.364 610.398 210.364C611.307 210.364 612.216 210.288 613.125 210.136C614.034 209.955 614.731 209.818 615.216 209.727L618.261 224.136C617.292 224.439 615.928 224.788 614.17 225.182C612.413 225.606 610.277 225.864 607.761 225.955C603.095 226.136 599.004 225.515 595.489 224.091C592.004 222.667 589.292 220.455 587.352 217.455C585.413 214.455 584.458 210.667 584.489 206.091V138.455ZM666.739 155.182V169.727H624.693V155.182H666.739ZM634.239 138.455H653.602V203.545C653.602 205.333 653.875 206.727 654.42 207.727C654.966 208.697 655.723 209.379 656.693 209.773C657.693 210.167 658.845 210.364 660.148 210.364C661.057 210.364 661.966 210.288 662.875 210.136C663.784 209.955 664.481 209.818 664.966 209.727L668.011 224.136C667.042 224.439 665.678 224.788 663.92 225.182C662.163 225.606 660.027 225.864 657.511 225.955C652.845 226.136 648.754 225.515 645.239 224.091C641.754 222.667 639.042 220.455 637.102 217.455C635.163 214.455 634.208 210.667 634.239 206.091V138.455ZM710.148 226.364C703.087 226.364 696.981 224.864 691.83 221.864C686.708 218.833 682.754 214.621 679.966 209.227C677.178 203.803 675.784 197.515 675.784 190.364C675.784 183.152 677.178 176.848 679.966 171.455C682.754 166.03 686.708 161.818 691.83 158.818C696.981 155.788 703.087 154.273 710.148 154.273C717.208 154.273 723.299 155.788 728.42 158.818C733.572 161.818 737.542 166.03 740.33 171.455C743.117 176.848 744.511 183.152 744.511 190.364C744.511 197.515 743.117 203.803 740.33 209.227C737.542 214.621 733.572 218.833 728.42 221.864C723.299 224.864 717.208 226.364 710.148 226.364ZM710.239 211.364C713.451 211.364 716.133 210.455 718.284 208.636C720.436 206.788 722.057 204.273 723.148 201.091C724.269 197.909 724.83 194.288 724.83 190.227C724.83 186.167 724.269 182.545 723.148 179.364C722.057 176.182 720.436 173.667 718.284 171.818C716.133 169.97 713.451 169.045 710.239 169.045C706.996 169.045 704.269 169.97 702.057 171.818C699.875 173.667 698.223 176.182 697.102 179.364C696.011 182.545 695.466 186.167 695.466 190.227C695.466 194.288 696.011 197.909 697.102 201.091C698.223 204.273 699.875 206.788 702.057 208.636C704.269 210.455 706.996 211.364 710.239 211.364ZM757.102 225V155.182H775.557V167.5H776.375C777.83 163.409 780.254 160.182 783.648 157.818C787.042 155.455 791.102 154.273 795.83 154.273C800.617 154.273 804.693 155.47 808.057 157.864C811.42 160.227 813.663 163.439 814.784 167.5H815.511C816.936 163.5 819.511 160.303 823.239 157.909C826.996 155.485 831.436 154.273 836.557 154.273C843.072 154.273 848.36 156.348 852.42 160.5C856.511 164.621 858.557 170.47 858.557 178.045V225H839.239V181.864C839.239 177.985 838.208 175.076 836.148 173.136C834.087 171.197 831.511 170.227 828.42 170.227C824.905 170.227 822.163 171.348 820.193 173.591C818.223 175.803 817.239 178.727 817.239 182.364V225H798.466V181.455C798.466 178.03 797.481 175.303 795.511 173.273C793.572 171.242 791.011 170.227 787.83 170.227C785.678 170.227 783.739 170.773 782.011 171.864C780.314 172.924 778.966 174.424 777.966 176.364C776.966 178.273 776.466 180.515 776.466 183.091V225H757.102ZM924.716 158.682C924.352 155.015 922.792 152.167 920.034 150.136C917.277 148.106 913.534 147.091 908.807 147.091C905.595 147.091 902.883 147.545 900.67 148.455C898.458 149.333 896.761 150.561 895.58 152.136C894.428 153.712 893.852 155.5 893.852 157.5C893.792 159.167 894.14 160.621 894.898 161.864C895.686 163.106 896.761 164.182 898.125 165.091C899.489 165.97 901.064 166.742 902.852 167.409C904.64 168.045 906.549 168.591 908.58 169.045L916.943 171.045C921.004 171.955 924.731 173.167 928.125 174.682C931.519 176.197 934.458 178.061 936.943 180.273C939.428 182.485 941.352 185.091 942.716 188.091C944.11 191.091 944.822 194.53 944.852 198.409C944.822 204.106 943.367 209.045 940.489 213.227C937.64 217.379 933.519 220.606 928.125 222.909C922.761 225.182 916.292 226.318 908.716 226.318C901.201 226.318 894.655 225.167 889.08 222.864C883.534 220.561 879.201 217.152 876.08 212.636C872.989 208.091 871.367 202.47 871.216 195.773H890.261C890.473 198.894 891.367 201.5 892.943 203.591C894.549 205.652 896.686 207.212 899.352 208.273C902.049 209.303 905.095 209.818 908.489 209.818C911.822 209.818 914.716 209.333 917.17 208.364C919.655 207.394 921.58 206.045 922.943 204.318C924.307 202.591 924.989 200.606 924.989 198.364C924.989 196.273 924.367 194.515 923.125 193.091C921.913 191.667 920.125 190.455 917.761 189.455C915.428 188.455 912.564 187.545 909.17 186.727L899.034 184.182C891.186 182.273 884.989 179.288 880.443 175.227C875.898 171.167 873.64 165.697 873.67 158.818C873.64 153.182 875.14 148.258 878.17 144.045C881.231 139.833 885.428 136.545 890.761 134.182C896.095 131.818 902.155 130.636 908.943 130.636C915.852 130.636 921.883 131.818 927.034 134.182C932.216 136.545 936.246 139.833 939.125 144.045C942.004 148.258 943.489 153.136 943.58 158.682H924.716ZM977.091 184.636V225H957.727V131.909H976.545V167.5H977.364C978.939 163.379 981.485 160.152 985 157.818C988.515 155.455 992.924 154.273 998.227 154.273C1003.08 154.273 1007.3 155.333 1010.91 157.455C1014.55 159.545 1017.36 162.561 1019.36 166.5C1021.39 170.409 1022.39 175.091 1022.36 180.545V225H1003V184C1003.03 179.697 1001.94 176.348 999.727 173.955C997.545 171.561 994.485 170.364 990.545 170.364C987.909 170.364 985.576 170.924 983.545 172.045C981.545 173.167 979.97 174.803 978.818 176.955C977.697 179.076 977.121 181.636 977.091 184.636ZM1069.42 226.364C1062.24 226.364 1056.06 224.909 1050.88 222C1045.72 219.061 1041.75 214.909 1038.97 209.545C1036.18 204.152 1034.78 197.773 1034.78 190.409C1034.78 183.227 1036.18 176.924 1038.97 171.5C1041.75 166.076 1045.68 161.848 1050.74 158.818C1055.83 155.788 1061.8 154.273 1068.65 154.273C1073.25 154.273 1077.54 155.015 1081.51 156.5C1085.51 157.955 1089 160.152 1091.97 163.091C1094.97 166.03 1097.3 169.727 1098.97 174.182C1100.63 178.606 1101.47 183.788 1101.47 189.727V195.045H1042.51V183.045H1083.24C1083.24 180.258 1082.63 177.788 1081.42 175.636C1080.21 173.485 1078.53 171.803 1076.38 170.591C1074.25 169.348 1071.78 168.727 1068.97 168.727C1066.03 168.727 1063.42 169.409 1061.15 170.773C1058.91 172.106 1057.15 173.909 1055.88 176.182C1054.6 178.424 1053.95 180.924 1053.92 183.682V195.091C1053.92 198.545 1054.56 201.53 1055.83 204.045C1057.13 206.561 1058.97 208.5 1061.33 209.864C1063.69 211.227 1066.5 211.909 1069.74 211.909C1071.89 211.909 1073.86 211.606 1075.65 211C1077.44 210.394 1078.97 209.485 1080.24 208.273C1081.51 207.061 1082.48 205.576 1083.15 203.818L1101.06 205C1100.15 209.303 1098.28 213.061 1095.47 216.273C1092.68 219.455 1089.07 221.939 1084.65 223.727C1080.25 225.485 1075.18 226.364 1069.42 226.364ZM1145.92 226.364C1138.74 226.364 1132.56 224.909 1127.38 222C1122.22 219.061 1118.25 214.909 1115.47 209.545C1112.68 204.152 1111.28 197.773 1111.28 190.409C1111.28 183.227 1112.68 176.924 1115.47 171.5C1118.25 166.076 1122.18 161.848 1127.24 158.818C1132.33 155.788 1138.3 154.273 1145.15 154.273C1149.75 154.273 1154.04 155.015 1158.01 156.5C1162.01 157.955 1165.5 160.152 1168.47 163.091C1171.47 166.03 1173.8 169.727 1175.47 174.182C1177.13 178.606 1177.97 183.788 1177.97 189.727V195.045H1119.01V183.045H1159.74C1159.74 180.258 1159.13 177.788 1157.92 175.636C1156.71 173.485 1155.03 171.803 1152.88 170.591C1150.75 169.348 1148.28 168.727 1145.47 168.727C1142.53 168.727 1139.92 169.409 1137.65 170.773C1135.41 172.106 1133.65 173.909 1132.38 176.182C1131.1 178.424 1130.45 180.924 1130.42 183.682V195.091C1130.42 198.545 1131.06 201.53 1132.33 204.045C1133.63 206.561 1135.47 208.5 1137.83 209.864C1140.19 211.227 1143 211.909 1146.24 211.909C1148.39 211.909 1150.36 211.606 1152.15 211C1153.94 210.394 1155.47 209.485 1156.74 208.273C1158.01 207.061 1158.98 205.576 1159.65 203.818L1177.56 205C1176.65 209.303 1174.78 213.061 1171.97 216.273C1169.18 219.455 1165.57 221.939 1161.15 223.727C1156.75 225.485 1151.68 226.364 1145.92 226.364ZM1227.74 155.182V169.727H1185.69V155.182H1227.74ZM1195.24 138.455H1214.6V203.545C1214.6 205.333 1214.88 206.727 1215.42 207.727C1215.97 208.697 1216.72 209.379 1217.69 209.773C1218.69 210.167 1219.84 210.364 1221.15 210.364C1222.06 210.364 1222.97 210.288 1223.88 210.136C1224.78 209.955 1225.48 209.818 1225.97 209.727L1229.01 224.136C1228.04 224.439 1226.68 224.788 1224.92 225.182C1223.16 225.606 1221.03 225.864 1218.51 225.955C1213.84 226.136 1209.75 225.515 1206.24 224.091C1202.75 222.667 1200.04 220.455 1198.1 217.455C1196.16 214.455 1195.21 210.667 1195.24 206.091V138.455Z" fill="url(#paint0_linear_101_58)"/>
<rect width="347" height="347" rx="60" fill="url(#paint1_linear_101_58)"/>
<path d="M13 130C13 118.954 21.9543 110 33 110H311C322.046 110 331 118.954 331 130V283C331 310.614 308.614 333 281 333H63C35.3858 333 13 310.614 13 283V130Z" fill="#F5F5F5"/>
<rect x="140" y="118" width="66" height="5" rx="2.5" fill="#D9D9D9"/>
<defs>
<linearGradient id="paint0_linear_101_58" x1="675.823" y1="353" x2="1184.96" y2="-267.462" gradientUnits="userSpaceOnUse">
<stop stop-color="#9D1B80"/>
<stop offset="0.449034" stop-color="#ED0173"/>
<stop offset="1" stop-color="#FB2569"/>
</linearGradient>
<linearGradient id="paint1_linear_101_58" x1="-56" y1="386" x2="408" y2="-60.5" gradientUnits="userSpaceOnUse">
<stop stop-color="#822B83"/>
<stop offset="0.385417" stop-color="#BC097E"/>
<stop offset="0.619792" stop-color="#F70071"/>
<stop offset="0.898453" stop-color="#FF4463"/>
</linearGradient>
</defs>
</svg>
